# xmcd CD database file
#
# Track frame offsets:
#	150
#	900
#	1650
#	2400
#	3150
#	3900
#	4650
#	5400
#	6150
#	6900
#	7650
#	8400
#	9150
#	9900
#	265487
#
# Disc length: 4440 seconds
#
# Revision: 0
# Processed by: cddbd v1.5.1PL0 Copyright (c) Steve Scherf et al.
# Submitted via: CDex 1.51
#
DISCID=6711560f
DTITLE=w-inds. - 〜PRIME OF LIFE〜
DYEAR=0003
DGENRE=JPop
TTITLE0=Love Train
TTITLE1=SUPER LOVER〜I need you tonighy〜
TTITLE2=whose is that girl?
TTITLE3=W.O.L(Wonder Of Love)
TTITLE4=Long Road
TTITLE5=空から降りてきた白い星
TTITLE6=GAME
TTITLE7=so what?
TTITLE8=Love is message
TTITLE9=Ex-Girlfriend
TTITLE10=Dedicated to You
TTITLE11=INFINITY
TTITLE12=Deny
TTITLE13=SUPER LOVER〜movin' pleasure mix〜
TTITLE14=DATA
EXTD=YEAR: 03/12/17
EXTT0=
EXTT1=
EXTT2=
EXTT3=
EXTT4=
EXTT5=
EXTT6=
EXTT7=
EXTT8=
EXTT9=
EXTT10=
EXTT11=
EXTT12=
EXTT13=
EXTT14=
PLAYORDER=
